# xmcd
#
# Track frame offsets:
#	182
#	22710
#	38910
#	60517
#	78087
#	102352
#	120450
#	133592
#	153160
#	168962
#	188592
#	207570
#	222145
#	238360
#	257965
#	272895
#	292925
#	312210
#
# Disc length: 4350 seconds
#
# Revision: 1
# Processed by: cddbd v1.4PL0 Copyright (c) Steve Scherf et al.
# Submitted via: AudioConverter v4.05 Copyright (c) Dennis Rebentrost
#
DISCID=f410fc12
DTITLE=Various Artist - Les plus belles chansons corses
DYEAR=1994
DGENRE=Chanson
TTITLE0=Corsica - PETRU GUELFUCCI
TTITLE1=Giramondu - NOUVELLES POLYPHONIES CORSES
TTITLE2=Oghje si tu - I MUVRINI
TTITLE3=A muntagnera - A FILETTA
TTITLE4=Mal'cunliliu - CANTA U POPULU CORSU
TTITLE5=Canta - MICHEL MALLORY
TTITLE6=Tribbiera - VOCE DI CORSICA
TTITLE7=Lesia - PATRIZIA POLI
TTITLE8=Di te - JEAN-PAUL POLETTI
TTITLE9=Catena - CHJAMI AGHJALESI
TTITLE10=Companero - Canta u Popolu Corsu
TTITLE11=S'a chjodu l'occhji - PETRU GUELFUCCI
TTITLE12=Anghjula dea -DIANA DI L'ALBA
TTITLE13=Ritrattu - FELI
TTITLE14=U ventu - DONNISULANA
TTITLE15=Una volta di piu - ORIZONTE
TTITLE16=L'anniversariu di Minetta - TAVAGNA
TTITLE17=Dio Vi salvi Regina - VOCE DI CORSICA
EXTD=
EXTT0=
EXTT1=
EXTT2=
EXTT3=
EXTT4=
EXTT5=
EXTT6=
EXTT7=
EXTT8=
EXTT9=
EXTT10=
EXTT11=
EXTT12=
EXTT13=
EXTT14=
EXTT15=
EXTT16=
EXTT17=
PLAYORDER=
